<svg width="566" height="543" viewBox="0 0 566 543" fill="none" xmlns="http://www.w3.org/2000/svg">
<path d="M544 383C544 380.239 541.761 378 539 378C536.239 378 534 380.239 534 383H539H544ZM512.333 141C512.333 155.728 524.272 167.667 539 167.667C553.728 167.667 565.667 155.728 565.667 141C565.667 126.272 553.728 114.333 539 114.333C524.272 114.333 512.333 126.272 512.333 141ZM539 383H534V529.5H539H544V383H539ZM531 537.5V532.5H13V537.5V542.5H531V537.5ZM5 529.5H10V13H5H0V529.5H5ZM13 5V10H531V5V0H13V5ZM539 13H534V141H539H544V13H539ZM531 5V10C532.657 10 534 11.3431 534 13H539H544C544 5.8203 538.18 0 531 0V5ZM5 13H10C10 11.3431 11.3431 10 13 10V5V0C5.8203 0 0 5.82029 0 13H5ZM13 537.5V532.5C11.3431 532.5 10 531.157 10 529.5H5H0C0 536.68 5.82029 542.5 13 542.5V537.5ZM539 529.5H534C534 531.157 532.657 532.5 531 532.5V537.5V542.5C538.18 542.5 544 536.68 544 529.5H539Z" fill="#EF8354"/>
</svg>
