<svg width="607" height="115" viewBox="0 0 607 115" fill="none" xmlns="http://www.w3.org/2000/svg">
<path d="M0.25 31C0.25 29.5417 0.375 28.2708 0.625 27.1875C0.875 26.1042 1.35417 25.2083 2.0625 24.5C2.77083 23.75 3.75 23.1875 5 22.8125C6.25 22.4375 7.875 22.25 9.875 22.25H39.9375C43.0625 22.25 46.1667 22.4792 49.25 22.9375C52.3333 23.3542 55.2708 24.125 58.0625 25.25C60.8542 26.375 63.4375 27.9375 65.8125 29.9375C68.2292 31.8958 70.3125 34.4375 72.0625 37.5625C73.8125 40.6875 75.1875 44.4375 76.1875 48.8125C77.1875 53.1875 77.6875 58.3333 77.6875 64.25C77.6875 71.2083 77.1458 77.2292 76.0625 82.3125C75.0208 87.3542 73.5833 91.6458 71.75 95.1875C69.9583 98.7292 67.8125 101.604 65.3125 103.812C62.8542 105.979 60.1875 107.688 57.3125 108.938C54.4792 110.146 51.5208 110.958 48.4375 111.375C45.3958 111.792 42.3542 112 39.3125 112H9.875C7.875 112 6.25 111.812 5 111.438C3.75 111.062 2.77083 110.521 2.0625 109.812C1.35417 109.104 0.875 108.208 0.625 107.125C0.375 106.042 0.25 104.771 0.25 103.312V31ZM68.875 65.5625C68.875 60.3958 68.4583 55.6875 67.625 51.4375C66.7917 47.1875 65.4792 43.5625 63.6875 40.5625C61.8958 37.5625 59.6042 35.2292 56.8125 33.5625C54.0625 31.8958 50.75 31.0417 46.875 31V103.312C50.75 103.271 54.0833 102.271 56.875 100.312C59.6667 98.3125 61.9375 95.6042 63.6875 92.1875C65.4792 88.7708 66.7917 84.7917 67.625 80.25C68.4583 75.6667 68.875 70.7708 68.875 65.5625ZM144 101.625C145.125 101.625 146.146 101.479 147.062 101.188C147.979 100.854 148.792 100.5 149.5 100.125C150.25 99.75 150.854 99.4167 151.312 99.125C151.812 98.7917 152.188 98.625 152.438 98.625C152.812 98.625 153.062 98.6875 153.188 98.8125C153.354 98.9375 153.542 99.1667 153.75 99.5L155.938 102.875C156.146 103.208 156.25 103.5 156.25 103.75C156.25 104.042 156.167 104.271 156 104.438C155.833 104.604 155.667 104.75 155.5 104.875C154.125 105.833 152.438 106.875 150.438 108C148.438 109.083 146.104 110.083 143.438 111C140.812 111.917 137.833 112.667 134.5 113.25C131.167 113.875 127.5 114.188 123.5 114.188C120.375 114.188 117.25 113.938 114.125 113.438C111 112.938 108 112.146 105.125 111.062C102.292 109.979 99.6458 108.562 97.1875 106.812C94.7292 105.062 92.5833 102.917 90.75 100.375C88.9583 97.8333 87.5417 94.8958 86.5 91.5625C85.4583 88.1875 84.9375 84.3333 84.9375 80C84.9375 75.75 85.4583 71.9583 86.5 68.625C87.5417 65.25 88.9583 62.2917 90.75 59.75C92.5833 57.2083 94.7292 55.0625 97.1875 53.3125C99.6458 51.5208 102.292 50.0833 105.125 49C108 47.875 111 47.0625 114.125 46.5625C117.25 46.0625 120.375 45.8125 123.5 45.8125C128.708 45.8125 133.542 46.3958 138 47.5625C142.5 48.7292 146.396 50.6458 149.688 53.3125C152.979 55.9792 155.562 59.4792 157.438 63.8125C159.312 68.1458 160.25 73.4583 160.25 79.75V83.25C160.25 84 160.062 84.5833 159.688 85C159.312 85.4167 158.688 85.625 157.812 85.625H131.938C132.271 88.7083 132.854 91.2917 133.688 93.375C134.562 95.4167 135.542 97.0625 136.625 98.3125C137.75 99.5208 138.958 100.375 140.25 100.875C141.542 101.375 142.792 101.625 144 101.625ZM151.375 77.9375C151.375 74.6042 151.104 71.8542 150.562 69.6875C150.062 67.4792 149.375 65.7292 148.5 64.4375C147.625 63.1042 146.583 62.1667 145.375 61.625C144.208 61.0833 142.979 60.8125 141.688 60.8125C140.729 60.8125 139.688 61 138.562 61.375C137.438 61.75 136.375 62.5417 135.375 63.75C134.417 64.9583 133.583 66.6875 132.875 68.9375C132.208 71.1875 131.812 74.1875 131.688 77.9375H151.375ZM213.938 45.8125C216.604 45.8125 219.271 45.9792 221.938 46.3125C224.604 46.6042 227.125 47 229.5 47.5C231.917 48 234.104 48.5625 236.062 49.1875C238.062 49.7708 239.688 50.3542 240.938 50.9375C241.146 51.0208 241.354 51.1458 241.562 51.3125C241.812 51.4792 241.938 51.7917 241.938 52.25C241.938 52.375 241.917 52.5417 241.875 52.75C241.833 52.9583 241.792 53.1667 241.75 53.375L241 57.0625C240.917 57.5625 240.792 57.875 240.625 58C240.5 58.0833 240.375 58.125 240.25 58.125C240.042 58.125 239.646 58.0625 239.062 57.9375C238.479 57.8125 237.854 57.75 237.188 57.75C234.812 57.75 232.938 58.3958 231.562 59.6875C230.188 60.9375 229.312 63.1458 228.938 66.3125L225.438 95.5C225.104 98.0833 224.229 100.5 222.812 102.75C221.438 105 219.438 106.979 216.812 108.688C214.188 110.396 210.938 111.729 207.062 112.688C203.229 113.688 198.729 114.188 193.562 114.188C190.312 114.188 187.146 113.979 184.062 113.562C180.979 113.188 178.125 112.708 175.5 112.125C172.917 111.583 170.646 111.042 168.688 110.5C166.771 109.917 165.333 109.458 164.375 109.125C164.042 109.042 163.792 108.938 163.625 108.812C163.417 108.646 163.312 108.396 163.312 108.062C163.312 107.896 163.333 107.708 163.375 107.5C163.417 107.292 163.479 107.042 163.562 106.75L164.312 103.25C164.396 102.917 164.542 102.646 164.75 102.438C164.958 102.229 165.333 102.125 165.875 102.125C167.25 102.125 168.625 102.062 170 101.938C171.417 101.771 172.708 101.375 173.875 100.75C175.083 100.125 176.125 99.1667 177 97.875C177.917 96.5833 178.542 94.7708 178.875 92.4375L183.25 62.3125C183.708 59.1458 184.875 56.5 186.75 54.375C188.625 52.25 190.938 50.5625 193.688 49.3125C196.479 48.0208 199.625 47.125 203.125 46.625C206.625 46.0833 210.229 45.8125 213.938 45.8125ZM247.375 18.3125C247.375 16.8958 247.5 15.6458 247.75 14.5625C248 13.4375 248.479 12.5208 249.188 11.8125C249.896 11.1042 250.875 10.5625 252.125 10.1875C253.375 9.8125 255 9.625 257 9.625H284.375C286.292 9.625 287.833 9.8125 289 10.1875C290.167 10.5625 291.083 11.1042 291.75 11.8125C292.417 12.5208 292.854 13.4375 293.062 14.5625C293.312 15.6458 293.438 16.8958 293.438 18.3125V63.4375L308.438 48.5625C308.896 48.1042 309.333 47.7917 309.75 47.625C310.167 47.4167 310.542 47.3125 310.875 47.3125C311.625 47.3125 312.271 47.625 312.812 48.25L315.938 51.5C316.396 52.0417 316.625 52.5625 316.625 53.0625C316.625 53.5208 316.458 53.9792 316.125 54.4375C315.833 54.8958 315.333 55.3958 314.625 55.9375L295.062 70.375C298.521 70.5 301.438 70.9583 303.812 71.75C306.188 72.5 308.104 73.6042 309.562 75.0625C311.021 76.5208 312.062 78.3333 312.688 80.5C313.354 82.6667 313.688 85.1875 313.688 88.0625V109.062C313.688 109.771 313.583 110.333 313.375 110.75C313.208 111.125 312.979 111.417 312.688 111.625C312.438 111.792 312.125 111.896 311.75 111.938C311.375 111.979 311 112 310.625 112H306.625C305.542 112 304.833 111.688 304.5 111.062C304.208 110.438 304.062 109.771 304.062 109.062V87.4375C304.062 85.5208 303.875 83.9375 303.5 82.6875C303.167 81.3958 302.583 80.375 301.75 79.625C300.917 78.8333 299.812 78.2708 298.438 77.9375C297.104 77.5625 295.438 77.3333 293.438 77.25V103.438C293.438 104.854 293.292 106.104 293 107.188C292.75 108.229 292.25 109.125 291.5 109.875C290.75 110.583 289.708 111.125 288.375 111.5C287.042 111.833 285.333 112 283.25 112H257C255 112 253.375 111.812 252.125 111.438C250.875 111.062 249.896 110.521 249.188 109.812C248.479 109.104 248 108.208 247.75 107.125C247.5 106.042 247.375 104.771 247.375 103.312V18.3125ZM382.375 31.75C381.458 31.75 380.479 31.8958 379.438 32.1875C378.438 32.4792 377.438 33.0417 376.438 33.875C375.438 34.7083 374.458 35.875 373.5 37.375C372.583 38.8333 371.771 40.7708 371.062 43.1875C370.396 45.6042 369.854 48.5417 369.438 52C369.021 55.4167 368.812 59.5 368.812 64.25C368.812 68.9583 369.021 73.0625 369.438 76.5625C369.854 80.0625 370.396 83.0625 371.062 85.5625C371.771 88.0625 372.583 90.125 373.5 91.75C374.458 93.3333 375.438 94.5833 376.438 95.5C377.438 96.4167 378.438 97.0625 379.438 97.4375C380.479 97.7708 381.458 97.9375 382.375 97.9375C383.625 97.9375 384.792 97.6667 385.875 97.125V73.1875C385.875 72.5208 386.021 71.875 386.312 71.25C386.604 70.5833 387.292 70.25 388.375 70.25H394.938C395.312 70.25 395.688 70.2708 396.062 70.3125C396.438 70.3542 396.771 70.4792 397.062 70.6875C397.354 70.8542 397.583 71.1458 397.75 71.5625C397.917 71.9375 398 72.4792 398 73.1875V109.062C398 109.771 397.917 110.333 397.75 110.75C397.583 111.125 397.354 111.417 397.062 111.625C396.771 111.792 396.438 111.896 396.062 111.938C395.688 111.979 395.312 112 394.938 112H388.375C387.833 112 387.396 111.917 387.062 111.75C386.771 111.583 386.521 111.354 386.312 111.062C386.146 110.771 386.021 110.458 385.938 110.125C385.896 109.75 385.875 109.396 385.875 109.062V107.25C384.542 108.208 383.062 109.125 381.438 110C379.812 110.875 378.021 111.646 376.062 112.312C374.146 112.979 372.062 113.5 369.812 113.875C367.562 114.25 365.146 114.438 362.562 114.438C359.521 114.438 356.396 114.167 353.188 113.625C349.979 113.083 346.854 112.125 343.812 110.75C340.812 109.333 337.958 107.417 335.25 105C332.542 102.583 330.167 99.5208 328.125 95.8125C326.125 92.1042 324.521 87.6667 323.312 82.5C322.146 77.2917 321.562 71.2083 321.562 64.25C321.562 58.3333 322.146 53.125 323.312 48.625C324.521 44.0833 326.146 40.1458 328.188 36.8125C330.229 33.4792 332.604 30.6875 335.312 28.4375C338.062 26.1875 340.979 24.3958 344.062 23.0625C347.146 21.6875 350.312 20.7292 353.562 20.1875C356.854 19.6042 360.062 19.3125 363.188 19.3125C366.604 19.3125 369.854 19.5833 372.938 20.125C376.021 20.6667 378.833 21.3542 381.375 22.1875C383.958 23.0208 386.25 23.9583 388.25 25C390.25 26.0417 391.896 27.0625 393.188 28.0625C393.312 28.1875 393.458 28.3333 393.625 28.5C393.792 28.625 393.875 28.7917 393.875 29C393.875 29.1667 393.812 29.375 393.688 29.625L391 33.875C390.75 34.25 390.458 34.4375 390.125 34.4375C389.875 34.4375 389.521 34.3125 389.062 34.0625C388.646 33.7708 388.104 33.4583 387.438 33.125C386.771 32.75 386.021 32.4375 385.188 32.1875C384.354 31.8958 383.417 31.75 382.375 31.75ZM408.25 56.6875C408.25 55.2708 408.375 54.0208 408.625 52.9375C408.875 51.8125 409.354 50.8958 410.062 50.1875C410.771 49.4792 411.75 48.9375 413 48.5625C414.25 48.1875 415.875 48 417.875 48H445.25C447.167 48 448.708 48.1875 449.875 48.5625C451.042 48.9375 451.958 49.5 452.625 50.25C453.292 51 453.729 51.9375 453.938 53.0625C454.188 54.1875 454.312 55.5 454.312 57V61.625L468.188 48.125C469.104 47.25 469.958 46.8125 470.75 46.8125C471.208 46.8125 471.604 46.9167 471.938 47.125C472.312 47.2917 472.625 47.5 472.875 47.75L475.688 50.6875C476.312 51.3125 476.625 52 476.625 52.75C476.625 53.2083 476.479 53.6875 476.188 54.1875C475.938 54.6458 475.521 55.1042 474.938 55.5625L454.312 71.5625V103.188C454.312 104.646 454.208 105.938 454 107.062C453.792 108.146 453.333 109.062 452.625 109.812C451.917 110.521 450.896 111.062 449.562 111.438C448.229 111.812 446.417 112 444.125 112H417.875C415.875 112 414.25 111.812 413 111.438C411.75 111.062 410.771 110.521 410.062 109.812C409.354 109.104 408.875 108.208 408.625 107.125C408.375 106.042 408.25 104.771 408.25 103.312V56.6875ZM477.75 56.6875C477.75 55.2708 477.875 54.0208 478.125 52.9375C478.375 51.8125 478.854 50.8958 479.562 50.1875C480.271 49.4792 481.25 48.9375 482.5 48.5625C483.75 48.1875 485.375 48 487.375 48H514.75C516.667 48 518.208 48.1875 519.375 48.5625C520.583 48.8958 521.521 49.4167 522.188 50.125C522.854 50.8333 523.292 51.7292 523.5 52.8125C523.708 53.8958 523.812 55.1875 523.812 56.6875V103.438C523.812 104.854 523.708 106.104 523.5 107.188C523.292 108.229 522.854 109.125 522.188 109.875C521.521 110.583 520.583 111.125 519.375 111.5C518.208 111.833 516.667 112 514.75 112H487.375C485.375 112 483.75 111.812 482.5 111.438C481.25 111.062 480.271 110.521 479.562 109.812C478.854 109.104 478.375 108.208 478.125 107.125C477.875 106.042 477.75 104.771 477.75 103.312V56.6875ZM480.062 21.25C480.062 18.375 480.604 15.6667 481.688 13.125C482.812 10.5833 484.312 8.375 486.188 6.5C488.062 4.625 490.271 3.14583 492.812 2.0625C495.354 0.9375 498.062 0.375 500.938 0.375C503.771 0.375 506.438 0.9375 508.938 2.0625C511.479 3.14583 513.688 4.625 515.562 6.5C517.438 8.375 518.917 10.5833 520 13.125C521.125 15.6667 521.688 18.375 521.688 21.25C521.688 24.0833 521.125 26.7708 520 29.3125C518.917 31.8125 517.438 34 515.562 35.875C513.688 37.75 511.479 39.25 508.938 40.375C506.438 41.4583 503.771 42 500.938 42C498.062 42 495.354 41.4583 492.812 40.375C490.271 39.25 488.062 37.75 486.188 35.875C484.312 34 482.812 31.8125 481.688 29.3125C480.604 26.7708 480.062 24.0833 480.062 21.25ZM606.312 103.312C606.312 104.771 606.188 106.042 605.938 107.125C605.688 108.208 605.208 109.104 604.5 109.812C603.792 110.521 602.812 111.062 601.562 111.438C600.312 111.812 598.688 112 596.688 112H569.375C566.333 111.917 563.312 111.646 560.312 111.188C557.354 110.688 554.521 109.938 551.812 108.938C549.146 107.896 546.646 106.562 544.312 104.938C542.021 103.271 540.021 101.271 538.312 98.9375C536.646 96.5625 535.333 93.7917 534.375 90.625C533.417 87.4167 532.938 83.75 532.938 79.625C532.938 74.5 533.667 70.1042 535.125 66.4375C536.583 62.7292 538.562 59.625 541.062 57.125C543.562 54.625 546.458 52.6458 549.75 51.1875C553.083 49.7292 556.583 48.6667 560.25 48V18.375C560.25 16.9167 560.354 15.6458 560.562 14.5625C560.771 13.4375 561.208 12.5208 561.875 11.8125C562.542 11.0625 563.458 10.5208 564.625 10.1875C565.792 9.8125 567.354 9.625 569.312 9.625H596.688C598.688 9.625 600.312 9.8125 601.562 10.1875C602.812 10.5625 603.792 11.1042 604.5 11.8125C605.208 12.5208 605.688 13.4375 605.938 14.5625C606.188 15.6458 606.312 16.8958 606.312 18.3125V103.312ZM541.812 79.6875C541.812 82.7708 542.167 85.6667 542.875 88.375C543.583 91.0417 544.667 93.4167 546.125 95.5C547.625 97.5417 549.542 99.2292 551.875 100.562C554.208 101.896 557 102.75 560.25 103.125V56C557 56.375 554.208 57.25 551.875 58.625C549.542 59.9583 547.625 61.6667 546.125 63.75C544.667 65.8333 543.583 68.2292 542.875 70.9375C542.167 73.6458 541.812 76.5625 541.812 79.6875Z" fill="#EF8354"/>
</svg>
