<svg width="927" height="543" viewBox="0 0 927 543" fill="none" xmlns="http://www.w3.org/2000/svg">
<path d="M314.25 232C314.25 230.542 314.375 229.271 314.625 228.188C314.875 227.104 315.354 226.208 316.062 225.5C316.771 224.75 317.75 224.188 319 223.812C320.25 223.438 321.875 223.25 323.875 223.25H353.938C357.062 223.25 360.167 223.479 363.25 223.938C366.333 224.354 369.271 225.125 372.062 226.25C374.854 227.375 377.438 228.938 379.812 230.938C382.229 232.896 384.312 235.438 386.062 238.562C387.812 241.688 389.188 245.438 390.188 249.812C391.188 254.188 391.688 259.333 391.688 265.25C391.688 272.208 391.146 278.229 390.062 283.312C389.021 288.354 387.583 292.646 385.75 296.188C383.958 299.729 381.812 302.604 379.312 304.812C376.854 306.979 374.188 308.688 371.312 309.938C368.479 311.146 365.521 311.958 362.438 312.375C359.396 312.792 356.354 313 353.312 313H323.875C321.875 313 320.25 312.812 319 312.438C317.75 312.062 316.771 311.521 316.062 310.812C315.354 310.104 314.875 309.208 314.625 308.125C314.375 307.042 314.25 305.771 314.25 304.312V232ZM382.875 266.562C382.875 261.396 382.458 256.688 381.625 252.438C380.792 248.188 379.479 244.562 377.688 241.562C375.896 238.562 373.604 236.229 370.812 234.562C368.062 232.896 364.75 232.042 360.875 232V304.312C364.75 304.271 368.083 303.271 370.875 301.312C373.667 299.312 375.938 296.604 377.688 293.188C379.479 289.771 380.792 285.792 381.625 281.25C382.458 276.667 382.875 271.771 382.875 266.562ZM458 302.625C459.125 302.625 460.146 302.479 461.062 302.188C461.979 301.854 462.792 301.5 463.5 301.125C464.25 300.75 464.854 300.417 465.312 300.125C465.812 299.792 466.188 299.625 466.438 299.625C466.812 299.625 467.062 299.688 467.188 299.812C467.354 299.938 467.542 300.167 467.75 300.5L469.938 303.875C470.146 304.208 470.25 304.5 470.25 304.75C470.25 305.042 470.167 305.271 470 305.438C469.833 305.604 469.667 305.75 469.5 305.875C468.125 306.833 466.438 307.875 464.438 309C462.438 310.083 460.104 311.083 457.438 312C454.812 312.917 451.833 313.667 448.5 314.25C445.167 314.875 441.5 315.188 437.5 315.188C434.375 315.188 431.25 314.938 428.125 314.438C425 313.938 422 313.146 419.125 312.062C416.292 310.979 413.646 309.562 411.188 307.812C408.729 306.062 406.583 303.917 404.75 301.375C402.958 298.833 401.542 295.896 400.5 292.562C399.458 289.188 398.938 285.333 398.938 281C398.938 276.75 399.458 272.958 400.5 269.625C401.542 266.25 402.958 263.292 404.75 260.75C406.583 258.208 408.729 256.062 411.188 254.312C413.646 252.521 416.292 251.083 419.125 250C422 248.875 425 248.062 428.125 247.562C431.25 247.062 434.375 246.812 437.5 246.812C442.708 246.812 447.542 247.396 452 248.562C456.5 249.729 460.396 251.646 463.688 254.312C466.979 256.979 469.562 260.479 471.438 264.812C473.312 269.146 474.25 274.458 474.25 280.75V284.25C474.25 285 474.062 285.583 473.688 286C473.312 286.417 472.688 286.625 471.812 286.625H445.938C446.271 289.708 446.854 292.292 447.688 294.375C448.562 296.417 449.542 298.062 450.625 299.312C451.75 300.521 452.958 301.375 454.25 301.875C455.542 302.375 456.792 302.625 458 302.625ZM465.375 278.938C465.375 275.604 465.104 272.854 464.562 270.688C464.062 268.479 463.375 266.729 462.5 265.438C461.625 264.104 460.583 263.167 459.375 262.625C458.208 262.083 456.979 261.812 455.688 261.812C454.729 261.812 453.688 262 452.562 262.375C451.438 262.75 450.375 263.542 449.375 264.75C448.417 265.958 447.583 267.688 446.875 269.938C446.208 272.188 445.812 275.188 445.688 278.938H465.375ZM527.938 246.812C530.604 246.812 533.271 246.979 535.938 247.312C538.604 247.604 541.125 248 543.5 248.5C545.917 249 548.104 249.562 550.062 250.188C552.062 250.771 553.688 251.354 554.938 251.938C555.146 252.021 555.354 252.146 555.562 252.312C555.812 252.479 555.938 252.792 555.938 253.25C555.938 253.375 555.917 253.542 555.875 253.75C555.833 253.958 555.792 254.167 555.75 254.375L555 258.062C554.917 258.562 554.792 258.875 554.625 259C554.5 259.083 554.375 259.125 554.25 259.125C554.042 259.125 553.646 259.062 553.062 258.938C552.479 258.812 551.854 258.75 551.188 258.75C548.812 258.75 546.938 259.396 545.562 260.688C544.188 261.938 543.312 264.146 542.938 267.312L539.438 296.5C539.104 299.083 538.229 301.5 536.812 303.75C535.438 306 533.438 307.979 530.812 309.688C528.188 311.396 524.938 312.729 521.062 313.688C517.229 314.688 512.729 315.188 507.562 315.188C504.312 315.188 501.146 314.979 498.062 314.562C494.979 314.188 492.125 313.708 489.5 313.125C486.917 312.583 484.646 312.042 482.688 311.5C480.771 310.917 479.333 310.458 478.375 310.125C478.042 310.042 477.792 309.938 477.625 309.812C477.417 309.646 477.312 309.396 477.312 309.062C477.312 308.896 477.333 308.708 477.375 308.5C477.417 308.292 477.479 308.042 477.562 307.75L478.312 304.25C478.396 303.917 478.542 303.646 478.75 303.438C478.958 303.229 479.333 303.125 479.875 303.125C481.25 303.125 482.625 303.062 484 302.938C485.417 302.771 486.708 302.375 487.875 301.75C489.083 301.125 490.125 300.167 491 298.875C491.917 297.583 492.542 295.771 492.875 293.438L497.25 263.312C497.708 260.146 498.875 257.5 500.75 255.375C502.625 253.25 504.938 251.562 507.688 250.312C510.479 249.021 513.625 248.125 517.125 247.625C520.625 247.083 524.229 246.812 527.938 246.812ZM561.375 219.312C561.375 217.896 561.5 216.646 561.75 215.562C562 214.438 562.479 213.521 563.188 212.812C563.896 212.104 564.875 211.562 566.125 211.188C567.375 210.812 569 210.625 571 210.625H598.375C600.292 210.625 601.833 210.812 603 211.188C604.167 211.562 605.083 212.104 605.75 212.812C606.417 213.521 606.854 214.438 607.062 215.562C607.312 216.646 607.438 217.896 607.438 219.312V264.438L622.438 249.562C622.896 249.104 623.333 248.792 623.75 248.625C624.167 248.417 624.542 248.312 624.875 248.312C625.625 248.312 626.271 248.625 626.812 249.25L629.938 252.5C630.396 253.042 630.625 253.562 630.625 254.062C630.625 254.521 630.458 254.979 630.125 255.438C629.833 255.896 629.333 256.396 628.625 256.938L609.062 271.375C612.521 271.5 615.438 271.958 617.812 272.75C620.188 273.5 622.104 274.604 623.562 276.062C625.021 277.521 626.062 279.333 626.688 281.5C627.354 283.667 627.688 286.188 627.688 289.062V310.062C627.688 310.771 627.583 311.333 627.375 311.75C627.208 312.125 626.979 312.417 626.688 312.625C626.438 312.792 626.125 312.896 625.75 312.938C625.375 312.979 625 313 624.625 313H620.625C619.542 313 618.833 312.688 618.5 312.062C618.208 311.438 618.062 310.771 618.062 310.062V288.438C618.062 286.521 617.875 284.938 617.5 283.688C617.167 282.396 616.583 281.375 615.75 280.625C614.917 279.833 613.812 279.271 612.438 278.938C611.104 278.562 609.438 278.333 607.438 278.25V304.438C607.438 305.854 607.292 307.104 607 308.188C606.75 309.229 606.25 310.125 605.5 310.875C604.75 311.583 603.708 312.125 602.375 312.5C601.042 312.833 599.333 313 597.25 313H571C569 313 567.375 312.812 566.125 312.438C564.875 312.062 563.896 311.521 563.188 310.812C562.479 310.104 562 309.208 561.75 308.125C561.5 307.042 561.375 305.771 561.375 304.312V219.312ZM696.375 232.75C695.458 232.75 694.479 232.896 693.438 233.188C692.438 233.479 691.438 234.042 690.438 234.875C689.438 235.708 688.458 236.875 687.5 238.375C686.583 239.833 685.771 241.771 685.062 244.188C684.396 246.604 683.854 249.542 683.438 253C683.021 256.417 682.812 260.5 682.812 265.25C682.812 269.958 683.021 274.062 683.438 277.562C683.854 281.062 684.396 284.062 685.062 286.562C685.771 289.062 686.583 291.125 687.5 292.75C688.458 294.333 689.438 295.583 690.438 296.5C691.438 297.417 692.438 298.062 693.438 298.438C694.479 298.771 695.458 298.938 696.375 298.938C697.625 298.938 698.792 298.667 699.875 298.125V274.188C699.875 273.521 700.021 272.875 700.312 272.25C700.604 271.583 701.292 271.25 702.375 271.25H708.938C709.312 271.25 709.688 271.271 710.062 271.312C710.438 271.354 710.771 271.479 711.062 271.688C711.354 271.854 711.583 272.146 711.75 272.562C711.917 272.938 712 273.479 712 274.188V310.062C712 310.771 711.917 311.333 711.75 311.75C711.583 312.125 711.354 312.417 711.062 312.625C710.771 312.792 710.438 312.896 710.062 312.938C709.688 312.979 709.312 313 708.938 313H702.375C701.833 313 701.396 312.917 701.062 312.75C700.771 312.583 700.521 312.354 700.312 312.062C700.146 311.771 700.021 311.458 699.938 311.125C699.896 310.75 699.875 310.396 699.875 310.062V308.25C698.542 309.208 697.062 310.125 695.438 311C693.812 311.875 692.021 312.646 690.062 313.312C688.146 313.979 686.062 314.5 683.812 314.875C681.562 315.25 679.146 315.438 676.562 315.438C673.521 315.438 670.396 315.167 667.188 314.625C663.979 314.083 660.854 313.125 657.812 311.75C654.812 310.333 651.958 308.417 649.25 306C646.542 303.583 644.167 300.521 642.125 296.812C640.125 293.104 638.521 288.667 637.312 283.5C636.146 278.292 635.562 272.208 635.562 265.25C635.562 259.333 636.146 254.125 637.312 249.625C638.521 245.083 640.146 241.146 642.188 237.812C644.229 234.479 646.604 231.688 649.312 229.438C652.062 227.188 654.979 225.396 658.062 224.062C661.146 222.688 664.312 221.729 667.562 221.188C670.854 220.604 674.062 220.312 677.188 220.312C680.604 220.312 683.854 220.583 686.938 221.125C690.021 221.667 692.833 222.354 695.375 223.188C697.958 224.021 700.25 224.958 702.25 226C704.25 227.042 705.896 228.062 707.188 229.062C707.312 229.188 707.458 229.333 707.625 229.5C707.792 229.625 707.875 229.792 707.875 230C707.875 230.167 707.812 230.375 707.688 230.625L705 234.875C704.75 235.25 704.458 235.438 704.125 235.438C703.875 235.438 703.521 235.312 703.062 235.062C702.646 234.771 702.104 234.458 701.438 234.125C700.771 233.75 700.021 233.438 699.188 233.188C698.354 232.896 697.417 232.75 696.375 232.75ZM722.25 257.688C722.25 256.271 722.375 255.021 722.625 253.938C722.875 252.812 723.354 251.896 724.062 251.188C724.771 250.479 725.75 249.938 727 249.562C728.25 249.188 729.875 249 731.875 249H759.25C761.167 249 762.708 249.188 763.875 249.562C765.042 249.938 765.958 250.5 766.625 251.25C767.292 252 767.729 252.938 767.938 254.062C768.188 255.188 768.312 256.5 768.312 258V262.625L782.188 249.125C783.104 248.25 783.958 247.812 784.75 247.812C785.208 247.812 785.604 247.917 785.938 248.125C786.312 248.292 786.625 248.5 786.875 248.75L789.688 251.688C790.312 252.312 790.625 253 790.625 253.75C790.625 254.208 790.479 254.688 790.188 255.188C789.938 255.646 789.521 256.104 788.938 256.562L768.312 272.562V304.188C768.312 305.646 768.208 306.938 768 308.062C767.792 309.146 767.333 310.062 766.625 310.812C765.917 311.521 764.896 312.062 763.562 312.438C762.229 312.812 760.417 313 758.125 313H731.875C729.875 313 728.25 312.812 727 312.438C725.75 312.062 724.771 311.521 724.062 310.812C723.354 310.104 722.875 309.208 722.625 308.125C722.375 307.042 722.25 305.771 722.25 304.312V257.688ZM791.75 257.688C791.75 256.271 791.875 255.021 792.125 253.938C792.375 252.812 792.854 251.896 793.562 251.188C794.271 250.479 795.25 249.938 796.5 249.562C797.75 249.188 799.375 249 801.375 249H828.75C830.667 249 832.208 249.188 833.375 249.562C834.583 249.896 835.521 250.417 836.188 251.125C836.854 251.833 837.292 252.729 837.5 253.812C837.708 254.896 837.812 256.188 837.812 257.688V304.438C837.812 305.854 837.708 307.104 837.5 308.188C837.292 309.229 836.854 310.125 836.188 310.875C835.521 311.583 834.583 312.125 833.375 312.5C832.208 312.833 830.667 313 828.75 313H801.375C799.375 313 797.75 312.812 796.5 312.438C795.25 312.062 794.271 311.521 793.562 310.812C792.854 310.104 792.375 309.208 792.125 308.125C791.875 307.042 791.75 305.771 791.75 304.312V257.688ZM794.062 222.25C794.062 219.375 794.604 216.667 795.688 214.125C796.812 211.583 798.312 209.375 800.188 207.5C802.062 205.625 804.271 204.146 806.812 203.062C809.354 201.938 812.062 201.375 814.938 201.375C817.771 201.375 820.438 201.938 822.938 203.062C825.479 204.146 827.688 205.625 829.562 207.5C831.438 209.375 832.917 211.583 834 214.125C835.125 216.667 835.688 219.375 835.688 222.25C835.688 225.083 835.125 227.771 834 230.312C832.917 232.812 831.438 235 829.562 236.875C827.688 238.75 825.479 240.25 822.938 241.375C820.438 242.458 817.771 243 814.938 243C812.062 243 809.354 242.458 806.812 241.375C804.271 240.25 802.062 238.75 800.188 236.875C798.312 235 796.812 232.812 795.688 230.312C794.604 227.771 794.062 225.083 794.062 222.25ZM920.312 304.312C920.312 305.771 920.188 307.042 919.938 308.125C919.688 309.208 919.208 310.104 918.5 310.812C917.792 311.521 916.812 312.062 915.562 312.438C914.312 312.812 912.688 313 910.688 313H883.375C880.333 312.917 877.312 312.646 874.312 312.188C871.354 311.688 868.521 310.938 865.812 309.938C863.146 308.896 860.646 307.562 858.312 305.938C856.021 304.271 854.021 302.271 852.312 299.938C850.646 297.562 849.333 294.792 848.375 291.625C847.417 288.417 846.938 284.75 846.938 280.625C846.938 275.5 847.667 271.104 849.125 267.438C850.583 263.729 852.562 260.625 855.062 258.125C857.562 255.625 860.458 253.646 863.75 252.188C867.083 250.729 870.583 249.667 874.25 249V219.375C874.25 217.917 874.354 216.646 874.562 215.562C874.771 214.438 875.208 213.521 875.875 212.812C876.542 212.062 877.458 211.521 878.625 211.188C879.792 210.812 881.354 210.625 883.312 210.625H910.688C912.688 210.625 914.312 210.812 915.562 211.188C916.812 211.562 917.792 212.104 918.5 212.812C919.208 213.521 919.688 214.438 919.938 215.562C920.188 216.646 920.312 217.896 920.312 219.312V304.312ZM855.812 280.688C855.812 283.771 856.167 286.667 856.875 289.375C857.583 292.042 858.667 294.417 860.125 296.5C861.625 298.542 863.542 300.229 865.875 301.562C868.208 302.896 871 303.75 874.25 304.125V257C871 257.375 868.208 258.25 865.875 259.625C863.542 260.958 861.625 262.667 860.125 264.75C858.667 266.833 857.583 269.229 856.875 271.938C856.167 274.646 855.812 277.562 855.812 280.688Z" fill="#EF8354"/>
<path d="M544 383C544 380.239 541.761 378 539 378C536.239 378 534 380.239 534 383H539H544ZM512.333 141C512.333 155.728 524.272 167.667 539 167.667C553.728 167.667 565.667 155.728 565.667 141C565.667 126.272 553.728 114.333 539 114.333C524.272 114.333 512.333 126.272 512.333 141ZM539 383H534V529.5H539H544V383H539ZM531 537.5V532.5H13V537.5V542.5H531V537.5ZM5 529.5H10V13H5H0V529.5H5ZM13 5V10H531V5V0H13V5ZM539 13H534V141H539H544V13H539ZM531 5V10C532.657 10 534 11.3431 534 13H539H544C544 5.8203 538.18 0 531 0V5ZM5 13H10C10 11.3431 11.3431 10 13 10V5V0C5.8203 0 0 5.82029 0 13H5ZM13 537.5V532.5C11.3431 532.5 10 531.157 10 529.5H5H0C0 536.68 5.82029 542.5 13 542.5V537.5ZM539 529.5H534C534 531.157 532.657 532.5 531 532.5V537.5V542.5C538.18 542.5 544 536.68 544 529.5H539Z" fill="#EF8354"/>
</svg>
